<svg xmlns="http://www.w3.org/2000/svg" width="1456.0702" height="225.6917" viewBox="0 0 1456.0702 225.6917">
    <defs>
        <style>
            .a {
            fill: #1976d2;
            }
        </style>
    </defs>
    <title>Asset 36</title>
    <g>
        <g>
            <path class="a" d="M833.1928,55.05V78.7856a66.6284,66.6284,0,1,0,0,85.7866v23.7351H848.85V55.05ZM782.2219,172.65a50.9708,50.9708,0,1,1,50.9709-50.9706A50.97,50.97,0,0,1,782.2219,172.65Z"/>
            <path class="a" d="M555.44,121.679A66.6685,66.6685,0,1,0,530.0514,173.99l14.3172,14.3171L555.44,177.2358,541.123,162.9186A66.3212,66.3212,0,0,0,555.44,121.679ZM488.8116,172.65a50.9868,50.9868,0,1,1,41.1454-20.8969l-12.2759-12.276L506.61,150.5483l12.276,12.2759A50.73,50.73,0,0,1,488.8116,172.65Z"/>
            <path class="a" d="M686.5229,55.05V121.679h-.0353a50.9708,50.9708,0,0,1-101.9416,0h-.0353V55.05H568.8884V121.679a66.6284,66.6284,0,0,0,133.2568,0V55.05Z"/>
            <path class="a" d="M932.8364,55.05a66.6284,66.6284,0,0,0-66.6285,66.6284v66.6285H881.83V121.6788h.0353a50.9707,50.9707,0,0,1,101.9414,0h15.6576A66.6282,66.6282,0,0,0,932.8364,55.05Z"/>
            <path class="a" d="M1078.75,55.0555A66.6234,66.6234,0,1,0,1134.656,157.897h-20.0687a50.952,50.952,0,1,1,15.1359-36.2181H1078.75v15.65h64.7639a65.9527,65.9527,0,0,0,1.8593-15.65A66.6238,66.6238,0,0,0,1078.75,55.0555Z"/>
            <path class="a" d="M1389.447,55.0555a66.6234,66.6234,0,1,0,55.9064,102.8415h-20.0687a50.952,50.952,0,1,1,15.1359-36.2181H1389.447v15.65h64.7639a65.9527,65.9527,0,0,0,1.8593-15.65A66.6238,66.6238,0,0,0,1389.447,55.0555Z"/>
            <path class="a" d="M1178.399,121.679h-.0356V55.05h-15.622V121.679h0a66.6281,66.6281,0,0,0,66.6281,66.6283V172.65A50.97,50.97,0,0,1,1178.399,121.679Z"/>
            <path class="a" d="M1263.8981,121.679h-.0356V55.05H1248.24V121.679h0a66.6279,66.6279,0,0,0,66.6281,66.6283V172.65A50.97,50.97,0,0,1,1263.8981,121.679Z"/>
            <path class="a" d="M833.1928,55.05V78.7856a66.6284,66.6284,0,1,0,0,85.7866v23.7351H848.85V55.05ZM782.2219,172.65a50.9708,50.9708,0,1,1,50.9709-50.9706A50.97,50.97,0,0,1,782.2219,172.65Z"/>
            <path class="a" d="M390.0522,55.05V78.7856a66.6284,66.6284,0,1,0,0,85.7866v23.7351H405.71V55.05ZM339.0813,172.65a50.9708,50.9708,0,1,1,50.9709-50.9706A50.97,50.97,0,0,1,339.0813,172.65Z"/>
            <path class="a" d="M555.44,121.679A66.6685,66.6685,0,1,0,530.0514,173.99l14.3172,14.3171L555.44,177.2358,541.123,162.9186A66.3212,66.3212,0,0,0,555.44,121.679ZM488.8116,172.65a50.9868,50.9868,0,1,1,41.1454-20.8969l-12.2759-12.276L506.61,150.5483l12.276,12.2759A50.73,50.73,0,0,1,488.8116,172.65Z"/>
            <path class="a" d="M686.5229,55.05V121.679h-.0353a50.9708,50.9708,0,0,1-101.9416,0h-.0353V55.05H568.8884V121.679a66.6284,66.6284,0,0,0,133.2568,0V55.05Z"/>
            <path class="a" d="M932.8364,55.05a66.6284,66.6284,0,0,0-66.6285,66.6284v66.6285H881.83V121.6788h.0353a50.9707,50.9707,0,0,1,101.9414,0h15.6576A66.6282,66.6282,0,0,0,932.8364,55.05Z"/>
            <path class="a" d="M1078.75,55.0555A66.6234,66.6234,0,1,0,1134.656,157.897h-20.0687a50.952,50.952,0,1,1,15.1359-36.2181H1078.75v15.65h64.7639a65.9527,65.9527,0,0,0,1.8593-15.65A66.6238,66.6238,0,0,0,1078.75,55.0555Z"/>
            <path class="a" d="M1389.447,55.0555a66.6234,66.6234,0,1,0,55.9064,102.8415h-20.0687a50.952,50.952,0,1,1,15.1359-36.2181H1389.447v15.65h64.7639a65.9527,65.9527,0,0,0,1.8593-15.65A66.6238,66.6238,0,0,0,1389.447,55.0555Z"/>
            <path class="a" d="M1178.399,121.679h-.0356V55.05h-15.622V121.679h0a66.6281,66.6281,0,0,0,66.6281,66.6283V172.65A50.97,50.97,0,0,1,1178.399,121.679Z"/>
            <path class="a" d="M1263.8981,121.679h-.0356V55.05H1248.24V121.679h0a66.6279,66.6279,0,0,0,66.6281,66.6283V172.65A50.97,50.97,0,0,1,1263.8981,121.679Z"/>
        </g>
        <path class="a" d="M219.3389,147.1321a104.7483,104.7483,0,0,0,2.9892-11.42,113.8106,113.8106,0,0,0,2.4229-23.396c0-25.7884-11.7051-108.21-105.4634-112.1636-.0908-.0047-.1816-.0078-.2725-.0125-.3608-.0144-.7212-.0288-1.0844-.0412C116.4194.0393,114.9028,0,113.3755,0c-.1421,0-.2832.0046-.4253.0054C83.5557-.1208,46.5522,7.1658,0,25.5837l.1279.1895C10.624,41.282,11.1562,60.7358,5.4116,78.56A104.8654,104.8654,0,0,0,2.4224,89.98,113.8438,113.8438,0,0,0,0,113.3757c0,25.7881,11.7051,108.21,105.4629,112.1634.0908.0046.1821.008.2729.0124q.5406.0221,1.084.041c1.5113.06,3.0283.0992,4.5552.0992.1426,0,.2832-.0049.4253-.0054,29.395.1262,66.3984-7.16,112.9507-25.5784l-.1284-.1894C214.127,184.41,213.5942,164.9558,219.3389,147.1321ZM30.1748,137.9309a73.2879,73.2879,0,0,0,4.3149,6.5537,76.2878,76.2878,0,0,0,54.7491,30.8145,78.3753,78.3753,0,0,0,16.1987-.29l2.0059-.2627c.6782-.1084,1.3823-.2651,2.0712-.3989l4.1475-.8686c1.3745-.3184,2.7149-.8,4.0689-1.2071a35.4555,35.4555,0,0,0,4.0019-1.4092l3.8945-1.6977c.3218-.1465.6485-.2822.9654-.4385l.9311-.51,1.856-1.0289,1.8472-1.0419.9194-.5259.875-.5972c1.167-.7954,2.3208-1.6108,3.4682-2.43l.8584-.6157.8086-.6807,1.607-1.372,1.5952-1.3814.793-.6943.7363-.7544,2.9131-3.0425.7148-.77.6548-.8232,1.3-1.6519a63.07,63.07,0,0,0,12.8936-30.3975c.0537-.3413.1176-.6806.1606-1.0229l.0825-1.0342.146-2.0679.1289-2.0644.06-1.03c.0029-.3442-.0142-.6885-.021-1.0322a59.3722,59.3722,0,0,0-.5635-8.1963c-.2041-1.3579-.3574-2.6865-.625-4.0532L159.72,95.7561c-.3369-1.3779-.893-2.7056-1.3559-4.0444-.253-.6641-.4683-1.3394-.7593-1.9864l-.91-1.9257a48.7171,48.7171,0,0,0-9.5962-13.7505,50.529,50.529,0,0,0-13.2617-9.7036,47.8964,47.8964,0,0,0-31.11-4.1739,38.7527,38.7527,0,0,0-14.4693,6.1162A36.2748,36.2748,0,0,0,77.9028,77.3542a34.213,34.213,0,0,0-4.7,13.6822,30.8335,30.8335,0,0,0,1.4712,13.623,33.7409,33.7409,0,0,1,2.9209-12.4653,30.7244,30.7244,0,0,1,6.9141-9.7124,28.6072,28.6072,0,0,1,9.4619-5.9292,26.699,26.699,0,0,1,10.4238-1.7315c.9107.066,1.8072.0142,2.6993.1167l2.6489.3409a33.0255,33.0255,0,0,1,5.0776,1.3442,31.8634,31.8634,0,0,1,9.0093,4.7129,34.5246,34.5246,0,0,1,6.8667,7.0312,28.9654,28.9654,0,0,1,4.186,8.4937l.3628,1.1055a.3972.3972,0,0,1,.0117.0431l.4756,2.2332a6.2881,6.2881,0,0,1,.209,1.1372q.1172,1.16.2686,2.2979c.0542.7983.0268,1.6626.0566,2.4829a37.43,37.43,0,0,1-.1914,4.9326c-.0151.2036-.019.4082-.0415.6109l-.1148.604-.2187,1.2046-.2017,1.2011-.0913.6c-.0449.1973-.1093.3916-.1626.5874a35.07,35.07,0,0,1-1.4365,4.6221l-.4224,1.1284a6.5049,6.5049,0,0,1-.46,1.1109l-1.0508,2.163a17.1808,17.1808,0,0,1-1.1958,2.0777l-.6172,1.0244a6.7687,6.7687,0,0,1-.6587.9956,34.9847,34.9847,0,0,1-2.9594,3.73l-.7857.8886-.3882.4473-.4409.398c-.5874.53-1.1577,1.0722-1.7251,1.6171l-.4233.4107-.4727.354-.9365.7148-.9248.7251-.4595.3653-.5024.3051c-.6685.4083-1.33.8208-1.9785,1.253l-.4864.3237-.5254.2578-1.0429.5244-1.0342.5367-.5142.2734c-.1772.0791-.3637.1382-.5444.2095q-1.092.4093-2.168.8462a16.2537,16.2537,0,0,1-2.2158.7045c-.7515.1954-1.4746.483-2.24.63l-2.3013.4131c-.3872.0694-.7529.1607-1.1563.2183l-1.2578.1318a50.7606,50.7606,0,0,1-29.2216-5.5058,52.0669,52.0669,0,0,1-25.5166-30.6832l-.7178-2.5195c-.1929-.8584-.4146-1.6938-.6011-2.5757l-.4956-2.727c-.166-.9111-.25-1.83-.3916-2.7471a74.89,74.89,0,0,1-.56-11.14q.0291-1.0707.0914-2.1431C46.0616,58.5062,65.3792,36.283,91.3,29.4788a87.0573,87.0573,0,0,1,61.5559,6.6506,86.716,86.716,0,0,1,45.2445,75.0415c.6094,47.0857-36.9928,86.4271-84.0613,87.8375a86.4583,86.4583,0,0,1-42.1442-9.4461A86.9489,86.9489,0,0,1,30.1748,137.9309Z"/>
    </g>
</svg>